<svg xmlns="http://www.w3.org/2000/svg" xmlns:svg="http://www.w3.org/2000/svg" id="svg73" version="1.1" viewBox="0 0 862.22 1252.12"><metadata id="metadata77"/><defs id="defs4"><style id="style2">.cls-1,.cls-11,.cls-12,.cls-13,.cls-3,.cls-7{fill:none}.cls-1,.cls-11,.cls-2,.cls-3,.cls-7{stroke:#ffb000}.cls-1,.cls-11,.cls-12,.cls-13,.cls-2,.cls-3,.cls-7{stroke-miterlimit:10}.cls-1,.cls-12,.cls-2,.cls-3{stroke-width:5px}.cls-2{fill:#fff}.cls-12,.cls-13,.cls-3,.cls-7{stroke-linecap:round}.cls-4{fill:#ffcfc9}.cls-5{fill:#52509d}.cls-6{fill:#3f4d79}.cls-7{stroke-width:7px}.cls-8{fill:#6562cf}.cls-9{fill:#ffc0b7}.cls-10{fill:#ffb000}.cls-11,.cls-13{stroke-width:4px}.cls-12{stroke:#fff}.cls-13{stroke:#f7b3af}</style></defs><g id="Layer_2" data-name="Layer 2"><g id="g1120"><path id="path6" d="m 48.88,577.25 h 390.83 a 5.12,5.12 0 0 1 5.12,5.12 v 30.12 a 5.12,5.12 0 0 1 -5.12,5.12 H 236.37 v 72.56" class="cls-1" style="fill:none;stroke:#ffb000;stroke-width:5px;stroke-miterlimit:10"/><path id="path8" d="M 95,35.25 75.55,177.72 a 187,187 0 0 0 15.86,104.57 l 28.43,60.59 c 18.89,40.26 51.5,71.71 91.43,88.18 l 85.84,35.41 z" class="cls-2" style="fill:#fff;stroke:#ffb000;stroke-width:5px;stroke-miterlimit:10"/><path id="path10" d="M 159.78,577.39 H 43.2 c -26.49,0 -45.91,-26 -39.45,-52.85 l 54,-182.73 c 5,-20.82 22.94,-35.41 43.5,-35.41" class="cls-1" style="fill:none;stroke:#ffb000;stroke-width:5px;stroke-miterlimit:10"/><path id="path12" d="m 304.52,474.51 v 0 a 5.8,5.8 0 0 1 -5.24,-3.41 L 93.48,31.82 c -1.9,-4.05 0.93,-8.77 5.24,-8.77 v 0 a 5.82,5.82 0 0 1 5.28,3.41 l 205.76,439.28 c 1.9,4.05 -0.93,8.77 -5.24,8.77 z" class="cls-2" style="fill:#fff;stroke:#ffb000;stroke-width:5px;stroke-miterlimit:10"/><circle id="circle14" cx="176.06" cy="559.77" r="15.05" class="cls-1" style="fill:none;stroke:#ffb000;stroke-width:5px;stroke-miterlimit:10"/><path id="path16" d="m 161.06,561.79 c -0.27,-9.18 5.78,-16.8 15,-17.07 l 1.46,-0.05 a 46,46 0 0 1 11.64,1.15 L 310.93,574" class="cls-1" style="fill:none;stroke:#ffb000;stroke-width:5px;stroke-miterlimit:10"/><path id="path19" d="m 859.8,425.6 -96.67,356.2 a 85.31,85.31 0 0 1 -82.33,63 H 353.36" class="cls-1" style="fill:none;stroke:#ffb000;stroke-width:5px;stroke-miterlimit:10"/><line id="line21" x1="379.83" x2="643.77" y1="844.76" y2="1245.18" class="cls-3" style="fill:none;stroke:#ffb000;stroke-width:5px;stroke-linecap:round;stroke-miterlimit:10"/><line id="line23" x1="668.77" x2="380.83" y1="844.76" y2="1249.18" class="cls-3" style="fill:none;stroke:#ffb000;stroke-width:5px;stroke-linecap:round;stroke-miterlimit:10"/><path style="fill:#ffcfc9" id="LEG-2" d="m 384.17,1108.53 c 0,0 -13.73,21 -37.57,18.06 l -16.12,-23.07 a 282.86,282.86 0 0 0 48.62,-15.14 c 1.64,7.67 3.35,14.7 5.07,20.15 z" class="cls-4" data-name="LEG"/><path style="fill:#52509d" id="PANTS" d="m 724,742.25 c -9.66,21.63 -41.84,77.83 -115.86,80.16 -91.76,2.89 -260.58,-5.77 -260.58,-5.77 0,0 38.61,152.56 39.44,268.17 0,0 -30.43,15.44 -75.6,22.22 0,0 -162,-303 -129.83,-377.08 23.94,-55.11 205.9,-76.54 288.15,-83.46 34.18,19.82 147.91,81.93 254.28,95.76 z" class="cls-5"/><path style="fill:#f08a5d;fill-opacity:1" id="path28" d="m 384.17,1108.53 c 0,0 16.68,18.34 35.09,32.9 11.66,9.22 7.08,27 -2.85,41.94 A 545.28,545.28 0 0 1 366.83,1247 c 0,0 -25.83,2.73 -76.1,0.67 0,0 -1.88,-17.84 15.89,-25.9 40.5,-18.37 49.62,-67 40,-95.13 -0.02,-0.05 20.21,3.56 37.55,-18.11 z" class="cls-6"/><path style="fill:none;stroke:#ffb000;stroke-width:7px;stroke-linecap:round;stroke-miterlimit:10" id="path30" d="m 427.19,1146.64 c 4.84,10.27 -2.36,25.71 -9.78,36.73 0,0 -27.58,38.45 -48.58,64.58 l -79.1,0.67" class="cls-7"/><path style="fill:none;stroke:#ffb000;stroke-width:5px;stroke-linecap:round;stroke-miterlimit:10" id="path32" d="m 341.48,1208.33 c 0,0 -18.25,-11.94 -5,-19.24" class="cls-3"/><path style="fill:none;stroke:#ffb000;stroke-width:5px;stroke-linecap:round;stroke-miterlimit:10" id="path34" d="m 351.48,1197.33 c 0,0 -22.25,-11.94 -9,-19.24" class="cls-3"/><path style="fill:#6562cf" id="HOOD" d="m 621.38,238.71 c 0,0 83.8,-23.09 89.73,-91.66 1.01,-11.61 -89.73,91.66 -89.73,91.66 z" class="cls-8"/><path id="path39" d="m 622.39,104.69 c 0,0 36.17,75.63 69.45,103.86 0,0 -53.13,35.33 -97.73,35.31 0,0 -29.2,-51.42 -41.3,-71.09 z" class="cls-4" style="fill:#ffcfc9"/><path id="path41" d="m 580.16,219.45 c -9.23,-16.07 -20.8,-36 -27.35,-46.68 l 52.94,-51.77 3.63,7.23 c 3.86,34.66 -5.81,72.48 -29.22,91.22 z" class="cls-9" style="fill:#ffc0b7"/><path style="fill:#ffcfc9" id="HEAD-2" d="m 610.78,119.81 c 0,0 -0.16,29 -11.19,45.05 -13.88,20.21 -49.21,42 -76.1,38 -26.89,-4 -50.34,-140.19 -30.17,-148.25 20.17,-8.06 76.52,-15.46 93.32,9.39 16.8,24.85 24.14,55.81 24.14,55.81 z" class="cls-4" data-name="HEAD"/><path id="path45" d="m 639,136.62 c 0,0 -11.71,1.88 -28.73,-5.93 0.53,-6.36 0.77,-19.42 -5.81,-23.18 -7.18,-4.1 -11.28,7.47 -12.55,11.85 q -2.3,-1.78 -4.65,-3.83 c -28,-24.33 -20.71,-48.15 -20.71,-48.15 0,0 -41.66,24.5 -81.35,22.88 -32.94,-1.34 -49.07,-47.44 -21.3,-61.18 0,0 -2,12.63 22.24,6.58 24.24,-6.05 19.53,-30.66 53.5,-34.99 41.86,-5.29 50.51,22.44 50.51,22.44 0,0 20.05,-10.55 40.69,8.64 21.99,20.45 -6.42,77.53 8.16,104.87 z" class="cls-10" style="fill:#ffb000"/><path id="path47" d="m 570.83,62.94 c 0,0 -38.94,31.06 -81.26,36.57 -39.81,5.18 -57.25,-46.23 -30.2,-64.87" class="cls-11" style="fill:none;stroke:#ffb000;stroke-width:4px;stroke-miterlimit:10"/><path id="path49" d="m 586.55,25.18 c 0,0 13.61,-19.36 39.38,-8" class="cls-11" style="fill:none;stroke:#ffb000;stroke-width:4px;stroke-miterlimit:10"/><path style="fill:#272e4f;fill-opacity:1" id="path53" d="M 732.8,743.29 C 764,712.73 803.74,520 793.36,396.44 a 210.41,210.41 0 0 0 -6.15,-41.69 v 0 a 164.45,164.45 0 0 0 -7.09,-23.62 c -9,-23 -29.58,-47 -58.2,-63.39 -29.17,-20.89 -67.23,-35.34 -117.67,-26.9 -75.08,12.56 -92.51,87.51 -96.55,121.63 l -0.06,-0.06 -20.37,114.52 -148.64,5.61 v 48.62 c 0,0 121.97,74.4 208.37,52.84 l 0.76,-0.2 c -41,40.1 -88.32,56.6 -88.32,56.6 0,0 143.97,89.32 273.36,102.89 z" class="cls-6"/><path style="fill:none;stroke:#fff;stroke-width:5px;stroke-linecap:round;stroke-miterlimit:10" id="path55" d="m 620,427.36 c 0,0 -28.46,143.35 -81.37,161.64" class="cls-12"/><path style="fill:#272e4f;fill-opacity:1" id="path57" d="m 621.38,238.71 c 23.19,-3 84.64,-42.07 89.68,-93.5 0,0 92.39,93.5 58.55,168.21 0,0 -18.84,-35 -59.58,-56.27 -48.76,-25.43 -88.65,-18.44 -88.65,-18.44 z" class="cls-6"/><path style="fill:none;stroke:#fff;stroke-width:5px;stroke-linecap:round;stroke-miterlimit:10" id="path59" d="m 777.78,317.47 c 0,0 -28,-37.22 -67.75,-60.32 -55.65,-32.35 -124.11,-15.4 -124.11,-15.4" class="cls-12"/><path style="fill:#ffcfc9" id="path62" d="m 339.11,513.88 c 0,0 -14.77,23.35 -30.49,20 -15.72,-3.35 -30.35,-5.65 -38.32,-1.55 -9.85,5.07 -19.63,16.26 -26.06,16.05 a 60.77,60.77 0 0 1 -22.6,-5 A 273.45,273.45 0 0 1 235,519.3 c -5.45,3.45 -12.68,10.53 -16.68,13.21 -6.4,4.3 -10.88,-1.82 -10.88,-1.82 0,0 11.06,-15.71 15.9,-19.8 4.65,-3.93 21.43,-16.12 28.75,-17.2 8.79,-2.09 52.16,-8.44 87.12,-10.83 z" class="cls-4"/><path style="fill:none;stroke:#f7b3af;stroke-width:4px;stroke-linecap:round;stroke-miterlimit:10" id="path64" d="m 229.8,543.6 c 0,0 19.61,-28.72 25.06,-30.74 9.6,-3.55 22.12,-8.24 22.12,-8.24" class="cls-13"/><path style="fill:none;stroke:#f7b3af;stroke-width:4px;stroke-linecap:round;stroke-miterlimit:10" id="path66" d="m 239.35,546.2 c 0,0 17.72,-24 23.16,-26 9.6,-3.55 22.13,-8.25 22.13,-8.25" class="cls-13"/></g></g></svg>