<?xml version="1.0" encoding="UTF-8" standalone="no"?>
<!-- Generator: Adobe Illustrator 22.1.0, SVG Export Plug-In . SVG Version: 6.00 Build 0)  -->

<svg
   xmlns:dc="http://purl.org/dc/elements/1.1/"
   xmlns:cc="http://creativecommons.org/ns#"
   xmlns:rdf="http://www.w3.org/1999/02/22-rdf-syntax-ns#"
   xmlns:svg="http://www.w3.org/2000/svg"
   xmlns="http://www.w3.org/2000/svg"
   xmlns:sodipodi="http://sodipodi.sourceforge.net/DTD/sodipodi-0.dtd"
   xmlns:inkscape="http://www.inkscape.org/namespaces/inkscape"
   version="1.1"
   id="Layer_2_1_"
   x="0px"
   y="0px"
   viewBox="0 0 1200 1200"
   style="enable-background:new 0 0 1200 1200;"
   xml:space="preserve"
   sodipodi:docname="login1.svg"
   inkscape:version="0.92.4 (5da689c313, 2019-01-14)"><metadata
   id="metadata109"><rdf:RDF><cc:Work
       rdf:about=""><dc:format>image/svg+xml</dc:format><dc:type
         rdf:resource="http://purl.org/dc/dcmitype/StillImage" /><dc:title>Artboard 1</dc:title></cc:Work></rdf:RDF></metadata><defs
   id="defs107" /><sodipodi:namedview
   pagecolor="#ffffff"
   bordercolor="#666666"
   borderopacity="1"
   objecttolerance="10"
   gridtolerance="10"
   guidetolerance="10"
   inkscape:pageopacity="0"
   inkscape:pageshadow="2"
   inkscape:window-width="1366"
   inkscape:window-height="705"
   id="namedview105"
   showgrid="false"
   inkscape:zoom="0.39333333"
   inkscape:cx="406.87605"
   inkscape:cy="569.45852"
   inkscape:window-x="-8"
   inkscape:window-y="-8"
   inkscape:window-maximized="1"
   inkscape:current-layer="Layer_2_1_" />
<style
   type="text/css"
   id="style2">
	.st0{fill:#FFFFFF;}
	.st1{fill:#56CAD8;}
	.st2{fill:#F3F3F3;}
	.st3{fill:#74D5DE;}
	.st4{fill:#DE8E68;}
	.st5{fill:#FCC486;}
	.st6{fill:#FED385;}
	.st7{fill:#FED892;}
	.st8{fill:#FD8369;}
	.st9{fill:none;stroke:#74D5DE;stroke-width:9;stroke-linecap:round;stroke-miterlimit:10;}
</style>
<title
   id="title4">Artboard 1</title>
















































<path
   style="fill:#f2f2f0;stroke-width:0.99988413;fill-opacity:1"
   inkscape:connector-curvature="0"
   class="st0"
   d="m 896.2369,562 v 427.7 c 0,31.3 -25.29414,56.6 -56.58688,56.6 v 0 H 507.32703 c -31.29275,0 -56.58689,-25.3 -56.58689,-56.6 v 0 -848.6 c 0,-31.3 25.29414,-56.6 56.58689,-56.6 h 332.32299 c 31.29274,0 56.58688,25.3 56.58688,56.6 v 0 420.9"
   id="path6" /><path
   style="fill:#56cad8;stroke-width:0.99988413"
   inkscape:connector-curvature="0"
   class="st1"
   d="M 814.45585,1064.2 740.97288,962.4 c 0,0 -41.39041,-57.2 -67.38438,-58.2 -0.19996,15 0.79981,122.6 5.39875,159.9 h 135.4686 z"
   id="path8" /><path
   style="fill:#f3f3f3;stroke-width:0.99988413"
   inkscape:connector-curvature="0"
   class="st2"
   d="m 578.11062,62.1 h 190.7558 c 8.69798,0 15.69636,7 15.69636,15.7 v 24.1 c 0,8.7 -6.99838,15.7 -15.69636,15.7 h -190.7558 c -8.69798,0 -15.69636,-7 -15.69636,-15.7 V 77.8 c 0,-8.6 6.99838,-15.7 15.69636,-15.7 z"
   id="path10" /><path
   style="fill:#74d5de;stroke-width:0.99988413"
   inkscape:connector-curvature="0"
   class="st3"
   d="M 882.64005,1047.9 H 896.2369 V 882.3 l -114.57345,-19 -108.17493,41 c 5.09882,11.6 31.99259,88.6 89.67922,156 h 119.37234 v -12.4 z"
   id="path12" /><path
   style="fill:#de8e68;stroke-width:0.99988413"
   inkscape:connector-curvature="0"
   class="st4"
   d="m 641.59591,641.7 c -9.29784,-0.2 -9.29784,14.1 -9.29784,14.1 -4.49896,-13.4 -102.67621,-257.7 -102.67621,-257.7 0,0 -20.2953,8.6 3.09928,54.8 -7.59824,4.5 -28.69335,21.4 -19.99537,48.6 6.59848,20.4 20.99514,27.6 29.99305,27.6 -1.49965,15.3 31.19278,171.6 35.49178,179.1 9.99768,17.7 29.29321,37 40.69057,37.5 18.19578,0.9 62.9854,-23 74.08283,-35.5 11.09743,-12.5 -33.89214,-68.2 -51.38809,-68.5 z"
   id="path14" /><path
   inkscape:connector-curvature="0"
   class="st5"
   d="M 776.76459,555.5 C 732.47485,516 624.3999,610.6 626.49941,627 c 2.09951,16.4 60.28603,75.7 77.38207,70.7 17.09604,-5 107.77502,-111.2 72.88311,-142.2 z"
   id="path16"
   style="fill:#272e4f;fill-opacity:1;stroke-width:0.99988413" /><path
   inkscape:connector-curvature="0"
   class="st6"
   d="m 896.2369,562 c -19.69543,-31.9 -48.58874,-52.5 -89.97915,-52.5 -143.6667,0 -147.76575,374 -132.76923,394.8 13.29692,18.4 171.7602,23.2 222.74838,10.5"
   id="path18"
   style="fill:#2c365d;fill-opacity:1;stroke-width:0.99988413" /><path
   style="fill:#de8e68;stroke-width:0.99988413"
   inkscape:connector-curvature="0"
   class="st4"
   d="m 896.2369,698.5 -15.0965,6.2 c 1.2997,4.8 7.09836,31.7 15.0965,61.4"
   id="path20" /><path
   inkscape:connector-curvature="0"
   class="st7"
   d="m 896.2369,558.7 c -9.99768,-7.4 -20.19532,-10.4 -29.59314,-6.5 -54.18744,22.6 -15.59639,158.5 0,163.5 4.99884,1.6 16.3962,0 29.59314,-3.5"
   id="path22"
   style="fill:#272e4f;fill-opacity:1;stroke-width:0.99988413" /><path
   style="fill:#de8e68;stroke-width:0.99988413"
   inkscape:connector-curvature="0"
   class="st4"
   d="m 833.85136,542.3 c 0,11.9 -65.88473,14.5 -65.88473,0 v -81 h 65.88473 z"
   id="path24" /><ellipse
   transform="matrix(0.36960928,-0.92918727,0.92912842,0.36975719,0,0)"
   class="st4"
   cx="-103.63435"
   cy="893.78784"
   rx="80.301102"
   ry="59.690769"
   id="ellipse26"
   style="fill:#a6f6f1;fill-opacity:1;stroke-width:0.99992949" /><ellipse
   style="fill:#de8e68;stroke-width:0.99990529"
   transform="matrix(0.58219851,-0.81304667,0.81291893,0.58237686,0,0)"
   class="st4"
   cx="121.49936"
   cy="950.76636"
   rx="18.898914"
   ry="13.198257"
   id="ellipse28" /><path
   style="fill:#fd8369;stroke-width:0.99988413"
   inkscape:connector-curvature="0"
   class="st8"
   d="m 899.03625,416.9 c 0,-11 -10.29761,-23.1 -12.19717,-36.9 -0.99977,-7 1.19972,-36.1 -6.99838,-46 -16.99606,-20.4 -26.99374,-16.2 -39.99073,-21 -22.59476,-8.3 -31.29275,-22 -49.98842,-22 -21.19509,0 -29.79309,11 -44.98957,11 -17.39597,0 -31.59268,-8 -55.98703,-8 -12.99699,0 -29.99305,17 -29.99305,32 0,35.5 32.99236,30.4 32.99236,39 0,6 -1.99954,10.8 -1.99954,19 0,10.8 13.99676,17 21.9949,17 24.39435,0 27.59361,-3 27.59361,-3 4.79889,-9.7 10.99745,-18.6 18.39574,-26.5 0.99977,-1 16.7961,10.1 42.59013,11 21.19509,0.7 36.09163,4.8 36.09163,14.7 0,7 -2.59939,27.7 -2.39944,33.5 0.19995,5.8 2.19949,9.6 3.49919,9.6 1.2997,0 1.99954,-1.9 10.19764,-1.9 8.69798,0 9.39782,10.7 10.89747,10.7 8.79796,0 40.29066,-7.1 40.29066,-32.2 z"
   id="path30" /><path
   style="fill:#fed385;stroke-width:0.99988413"
   inkscape:connector-curvature="0"
   class="st6"
   d="m 504.4277,284.8 h 49.88844 c 14.79657,0 26.79379,12 26.79379,26.8 v 49.9 c 0,14.8 -11.99722,26.8 -26.79379,26.8 H 504.4277 c -14.79657,0 -26.79379,-12 -26.79379,-26.8 v -49.9 c 0,-14.8 11.99722,-26.8 26.79379,-26.8 z"
   id="path32" /><ellipse
   style="fill:#fd8369;stroke-width:0.99988413"
   class="st8"
   cx="568.71277"
   cy="293.10001"
   id="circle34"
   rx="21.195089"
   ry="21.200001" /><path
   inkscape:connector-curvature="0"
   class="st2"
   d="M 841.4496,54 H 505.62742 c -45.18953,0 -81.88103,36.7 -81.88103,81.9 v 858.8 c 0,45.2 36.6915,81.9 81.88103,81.9 v 0 H 841.4496 c 45.18953,0 81.88102,-36.7 81.88102,-81.9 V 135.9 c 0,-45.2 -36.69149,-81.9 -81.88102,-81.9 z m 54.7873,508 v 427.7 c 0,31.3 -25.29414,56.6 -56.58688,56.6 v 0 H 507.32703 c -31.29275,0 -56.58689,-25.3 -56.58689,-56.6 v 0 -848.6 c 0,-31.3 25.29414,-56.6 56.58689,-56.6 h 332.32299 c 31.29274,0 56.58688,25.3 56.58688,56.6 v 0 z"
   id="path36"
   style="fill:#272e4f;fill-opacity:1;stroke-width:0.99988413" /><path
   inkscape:connector-curvature="0"
   class="st3"
   d="m 893.43755,181.1 h 121.27185 c 21.895,0 39.6909,17.8 39.6909,39.7 v 0 c 0,21.9 -17.7959,39.7 -39.6909,39.7 H 893.43755 c -21.89493,0 -39.6908,-17.8 -39.6908,-39.7 v 0 c 0,-22 17.79587,-39.7 39.6908,-39.7 z"
   id="path38"
   style="fill:#f2f2f0;fill-opacity:1;stroke-width:0.99988413" /><polygon
   style="fill:#74d5de"
   class="st3"
   points="866.7,207.5 866.7,276.5 901.1,242 "
   id="polygon40"
   transform="matrix(0.99976832,0,0,1,0.04458033,0)" /><ellipse
   style="fill:#fed385;stroke-width:0.99988413"
   class="st6"
   cx="913.133"
   cy="222.10001"
   id="circle42"
   rx="9.9976835"
   ry="10" /><ellipse
   style="fill:#fed385;stroke-width:0.99988413"
   class="st6"
   cx="954.12347"
   cy="222.10001"
   id="circle44"
   rx="9.9976835"
   ry="10" /><ellipse
   style="fill:#fed385;stroke-width:0.99988413"
   class="st6"
   cx="995.01404"
   cy="222.10001"
   id="circle46"
   rx="9.9976835"
   ry="10" /><path
   style="fill:none;stroke:#74d5de;stroke-width:8.99895763;stroke-linecap:round;stroke-miterlimit:10"
   inkscape:connector-curvature="0"
   class="st9"
   d="M 351.06324,987.3 C 365.95979,980.9 377.5571,971 377.5571,942.5 377.5571,809 219.5937,845 219.5937,734.1"
   id="path48" /><path
   style="fill:#74d5de;stroke-width:0.99988413"
   inkscape:connector-curvature="0"
   class="st3"
   d="m 247.38726,733.4 c 8.59801,11.2 -20.09534,23.9 -24.19439,18.6 -4.09905,-5.3 15.0965,-30.5 24.19439,-18.6 z"
   id="path50" /><path
   style="fill:#74d5de;stroke-width:0.99988413"
   inkscape:connector-curvature="0"
   class="st3"
   d="m 387.35483,537.2 c 10.39759,13.6 -20.39528,26 -25.39412,19.5 -4.99884,-6.5 14.19671,-34.1 25.39412,-19.5 z"
   id="path52" /><path
   style="fill:#74d5de;stroke-width:0.99988413"
   inkscape:connector-curvature="0"
   class="st3"
   d="m 378.95677,593.4 c 8.29808,15 -31.99258,27.1 -35.99166,19.9 -3.99907,-7.2 27.1937,-36 35.99166,-19.9 z"
   id="path54" /><path
   style="fill:#74d5de;stroke-width:0.99988413"
   inkscape:connector-curvature="0"
   class="st3"
   d="m 381.35622,636.1 c 10.89747,13.2 -26.59384,32.4 -31.79263,26.1 -5.1988,-6.3 20.19532,-40.3 31.79263,-26.1 z"
   id="path56" /><path
   style="fill:#74d5de;stroke-width:0.99988413"
   inkscape:connector-curvature="0"
   class="st3"
   d="m 394.15325,684 c 10.89748,13.2 -26.59384,32.4 -31.79263,26.1 -5.1988,-6.3 20.19532,-40.2 31.79263,-26.1 z"
   id="path58" /><path
   style="fill:#74d5de;stroke-width:0.99988413"
   inkscape:connector-curvature="0"
   class="st3"
   d="m 405.35066,728.7 c 9.8977,12 -22.8947,28.4 -27.59361,22.6 -4.69891,-5.8 16.99606,-35.5 27.59361,-22.6 z"
   id="path60" /><path
   style="fill:#74d5de;stroke-width:0.99988413"
   inkscape:connector-curvature="0"
   class="st3"
   d="m 420.34718,777.6 c 9.89771,12 -22.89469,28.4 -27.5936,22.6 -4.69891,-5.8 16.99606,-35.5 27.5936,-22.6 z"
   id="path62" /><path
   style="fill:#74d5de;stroke-width:0.99988413"
   inkscape:connector-curvature="0"
   class="st3"
   d="m 192.99987,724.6 c 3.59916,-13.6 31.29274,1.2 29.59314,7.8 -1.69961,6.6 -33.39226,6.8 -29.59314,-7.8 z"
   id="path64" /><path
   style="fill:#74d5de;stroke-width:0.99988413"
   inkscape:connector-curvature="0"
   class="st3"
   d="m 192.49998,772.5 c -1.79958,-13.9 29.49317,-10.5 30.29298,-3.8 0.79982,6.7 -28.39342,18.8 -30.29298,3.8 z"
   id="path66" /><path
   style="fill:#74d5de;stroke-width:0.99988413"
   inkscape:connector-curvature="0"
   class="st3"
   d="m 220.09359,816 c -9.09789,-10.7 18.89562,-25 23.2946,-19.9 4.39898,5.1 -13.49687,31.3 -23.2946,19.9 z"
   id="path68" /><path
   style="fill:#74d5de;stroke-width:0.99988413"
   inkscape:connector-curvature="0"
   class="st3"
   d="m 254.78555,839.5 c -5.49873,-12.9 25.49409,-18.1 28.09349,-11.9 2.5994,6.2 -22.29484,25.7 -28.09349,11.9 z"
   id="path70" /><path
   style="fill:#74d5de;stroke-width:0.99988413"
   inkscape:connector-curvature="0"
   class="st3"
   d="m 301.27478,863.9 c -5.49873,-12.9 25.49409,-18.1 28.09348,-11.9 2.5994,6.2 -22.19485,25.7 -28.09348,11.9 z"
   id="path72" /><path
   style="fill:#74d5de;stroke-width:0.99988413"
   inkscape:connector-curvature="0"
   class="st3"
   d="m 336.16669,899.3 c -1.19972,-14 29.89307,-9.3 30.49293,-2.6 0.59986,6.7 -29.19323,17.6 -30.49293,2.6 z"
   id="path74" /><path
   style="fill:#74d5de;stroke-width:0.99988413"
   inkscape:connector-curvature="0"
   class="st3"
   d="m 262.48376,763.5 c 10.99746,8.8 -13.7968,28.1 -19.09557,23.9 -5.29877,-4.2 7.29831,-33.4 19.09557,-23.9 z"
   id="path76" /><path
   style="fill:#74d5de;stroke-width:0.99988413"
   inkscape:connector-curvature="0"
   class="st3"
   d="m 287.378,788.5 c 12.09719,7.2 -9.69776,29.7 -15.49641,26.3 -5.79866,-3.4 2.59939,-33.9 15.49641,-26.3 z"
   id="path78" /><path
   style="fill:#74d5de;stroke-width:0.99988413"
   inkscape:connector-curvature="0"
   class="st3"
   d="m 333.06741,813.1 c 11.39736,8.2 -12.49711,28.7 -17.99583,24.7 -5.49873,-4 5.79865,-33.5 17.99583,-24.7 z"
   id="path80" /><path
   style="fill:none;stroke:#74d5de;stroke-width:8.99895763;stroke-linecap:round;stroke-miterlimit:10"
   inkscape:connector-curvature="0"
   class="st9"
   d="m 353.86259,992.5 c 0,-5.7 48.48876,-58.9 48.48876,-125 0,-107.8 -60.18605,-161.8 -60.18605,-238.8 0,-14.6 1.2997,-60.4 24.49432,-79"
   id="path82" /><path
   style="fill:#fdd5c6;stroke-width:0.99988413;fill-opacity:1"
   inkscape:connector-curvature="0"
   class="st8"
   d="M 419.74732,1116.4 H 331.3678 c -4.09905,0 -7.79819,-2.6 -9.09789,-6.6 L 278.2801,976.5 c -1.59963,-5 1.09975,-10.4 6.09859,-12.1 0.99977,-0.3 1.99954,-0.5 2.99931,-0.5 h 176.75903 c 5.29878,0 9.59778,4.3 9.59778,9.6 0,1 -0.19995,2 -0.49988,3 l -44.38972,133.3 c -1.39967,4 -4.99884,6.6 -9.09789,6.6 z"
   id="path84" /><path
   style="fill:#74d5de;stroke-width:0.99988413"
   inkscape:connector-curvature="0"
   class="st3"
   d="m 434.54389,833.7 c 5.1988,14.7 -31.19277,18.9 -33.59221,11.9 -2.39945,-7 28.09349,-27.7 33.59221,-11.9 z"
   id="path86" /><path
   style="fill:#74d5de;stroke-width:0.99988413"
   inkscape:connector-curvature="0"
   class="st3"
   d="m 375.15765,855.3 c 11.49734,-10.4 29.49317,21.5 23.89447,26.5 -5.59871,5 -36.29159,-15.3 -23.89447,-26.5 z"
   id="path88" /><path
   style="fill:#74d5de;stroke-width:0.99988413"
   inkscape:connector-curvature="0"
   class="st3"
   d="m 365.85981,815.5 c 7.59824,-13.5 34.69196,11.1 31.09279,17.5 -3.59916,6.4 -39.29089,-3 -31.09279,-17.5 z"
   id="path90" /><path
   style="fill:#74d5de;stroke-width:0.99988413"
   inkscape:connector-curvature="0"
   class="st3"
   d="m 357.16182,768.3 c 7.59824,-13.5 34.69196,11.1 31.0928,17.5 -3.59917,6.4 -39.2909,-3 -31.0928,-17.5 z"
   id="path92" /><path
   style="fill:#74d5de;stroke-width:0.99988413"
   inkscape:connector-curvature="0"
   class="st3"
   d="m 341.66542,730.8 c 4.99884,-14.8 36.19161,4.3 33.79216,11.4 -2.39944,7.1 -39.19091,4.3 -33.79216,-11.4 z"
   id="path94" /><path
   style="fill:#74d5de;stroke-width:0.99988413"
   inkscape:connector-curvature="0"
   class="st3"
   d="m 319.67051,679 c 7.29831,-13.8 34.99189,10.1 31.4927,16.7 -3.49918,6.6 -39.19091,-1.9 -31.4927,-16.7 z"
   id="path96" /><path
   style="fill:#74d5de;stroke-width:0.99988413"
   inkscape:connector-curvature="0"
   class="st3"
   d="m 309.3729,621.4 c 8.49803,-13 33.99212,13.3 29.89307,19.5 -4.09905,6.2 -38.99096,-5.5 -29.89307,-19.5 z"
   id="path98" /><path
   style="fill:#74d5de;stroke-width:0.99988413"
   inkscape:connector-curvature="0"
   class="st3"
   d="m 314.47172,571.8 c 8.49803,-13 33.99212,13.3 29.89307,19.5 -4.09905,6.2 -38.99096,-5.5 -29.89307,-19.5 z"
   id="path100" /><path
   style="fill:#74d5de;stroke-width:0.99988413"
   inkscape:connector-curvature="0"
   class="st3"
   d="m 434.54389,884.7 c 5.1988,14.7 -31.19277,18.9 -33.59221,11.9 -2.39945,-7 28.09349,-27.6 33.59221,-11.9 z"
   id="path102" />
</svg>